<svg version="1.1" id="Layer_1" xmlns="http://www.w3.org/2000/svg" xmlns:xlink="http://www.w3.org/1999/xlink" x="0px" y="0px"
	 width="100%" viewBox="0 0 1024 1024" enable-background="new 0 0 1024 1024" xml:space="preserve">
<path fill="#999999" opacity="1.000000" stroke="none" 
	d="
M152.454102,1025.000000 
	C158.896652,989.096313 166.997879,953.477783 177.669052,918.489136 
	C186.850922,888.383911 196.315765,858.393494 211.847488,830.727966 
	C219.013031,817.964478 227.689819,807.090881 241.274200,800.503052 
	C264.947083,789.022644 287.837372,775.975952 311.746094,764.952942 
	C314.134613,763.851746 316.621887,762.964783 318.877625,762.053467 
	C318.736481,741.054871 325.694580,722.583618 336.123322,705.194092 
	C340.525696,697.853333 339.532623,693.663879 332.541779,689.180481 
	C319.773132,680.991699 318.382446,671.030334 320.080353,656.997375 
	C320.495514,653.565979 320.089172,651.326294 317.632568,649.093506 
	C308.151093,640.475952 304.372437,629.860352 306.602386,617.146790 
	C306.931427,615.270752 307.346680,613.381531 305.606964,611.573059 
	C296.232300,601.828003 296.169128,590.016296 299.039948,577.955750 
	C299.847748,574.562195 299.999451,571.489441 299.408264,568.223877 
	C294.512634,541.180908 297.482605,515.201294 310.711700,490.904266 
	C314.384521,484.158630 315.658936,479.083771 310.987183,471.666595 
	C301.599487,456.762177 298.946411,440.086121 304.056305,422.779541 
	C304.899292,419.924561 304.254852,418.052643 302.294678,416.105316 
	C299.816223,413.643127 297.383606,411.092438 295.825134,407.896942 
	C293.691650,403.522491 294.540802,399.589417 297.949158,397.885834 
	C302.338074,395.692200 304.293701,398.712433 306.316284,401.745758 
	C307.479706,403.490631 307.924927,405.760651 310.296204,407.184265 
	C314.848846,398.069702 321.973389,391.472046 330.438141,386.234802 
	C332.916016,384.701721 332.930176,382.342926 332.589722,380.060822 
	C331.301849,371.427673 330.840759,362.877350 334.566559,354.458710 
	C319.979126,346.878662 306.434906,338.482910 293.890106,328.535706 
	C274.672089,313.297058 258.847992,295.302979 249.135666,272.527679 
	C244.316833,261.227539 242.318680,249.444229 247.001602,237.583252 
	C251.516083,226.148926 260.885773,220.896362 272.591736,219.710358 
	C286.187988,218.332825 298.486908,222.754791 310.313660,229.005203 
	C327.835083,238.265259 344.637421,248.856384 362.712616,257.096680 
	C371.910583,261.289917 371.543121,261.324890 375.302124,252.184845 
	C385.520325,227.339203 388.694763,200.849731 393.535522,174.775650 
	C396.592712,158.308594 399.480499,141.774567 401.085632,125.072372 
	C402.039581,115.146049 403.113312,105.214653 403.557312,95.259850 
	C404.202576,80.791870 404.224792,66.297188 404.717773,51.820881 
	C404.972931,44.329456 408.151642,38.613487 415.554474,35.705051 
	C431.031311,29.624470 447.164093,26.813404 463.661652,25.629087 
	C478.766998,24.544710 493.862579,23.474611 509.030853,23.821835 
	C554.535950,24.863506 599.170593,31.042381 642.062134,46.903492 
	C674.131958,58.762768 703.989258,74.468773 730.283447,96.852516 
	C741.917786,106.756653 752.414307,117.499794 762.117310,129.144638 
	C767.054626,135.069977 770.769958,141.652298 772.597351,149.333145 
	C773.959167,155.057190 773.408142,160.125183 770.200256,165.036209 
	C763.461487,175.352722 756.388611,185.482025 750.211182,196.128143 
	C733.424988,225.057281 721.597168,256.201355 710.192444,287.519012 
	C708.942078,290.952667 710.612244,291.809631 713.125610,292.983917 
	C727.349060,299.629303 741.230774,306.919525 753.049988,317.436584 
	C773.728882,335.837219 787.572510,358.203949 788.921021,386.369019 
	C789.776123,404.229248 783.051208,420.121460 771.774597,434.185791 
	C756.715393,452.967865 736.853394,462.349274 713.478882,465.353851 
	C708.928101,465.938812 704.365295,466.429596 698.956360,467.063660 
	C704.265503,472.089294 708.609619,476.775299 711.679199,482.570679 
	C718.394592,495.249023 718.264099,508.257599 714.776794,521.783569 
	C709.767212,541.213501 699.255493,556.568726 682.409180,567.516113 
	C680.645081,568.662476 679.225159,569.798828 679.336426,572.198975 
	C679.545227,576.701538 678.448792,581.192139 678.505493,585.617371 
	C678.733948,603.447754 662.955872,617.862976 640.577759,610.833984 
	C621.955811,604.984802 618.340881,589.604126 624.012390,574.828003 
	C626.511292,568.317627 626.653381,568.372131 619.742920,564.890503 
	C617.564392,573.044312 613.579590,580.556458 614.169556,589.419983 
	C614.542297,595.019409 613.727112,600.706177 613.326721,606.345337 
	C613.124512,609.192749 614.221436,610.217468 617.084351,610.959229 
	C628.639832,613.952942 640.549805,616.220642 649.065369,625.959351 
	C660.970520,639.574646 667.684021,655.347656 669.307373,673.276367 
	C669.882446,679.628174 670.751038,685.011902 676.986145,689.176575 
	C690.535095,698.226379 695.218628,712.397095 696.282898,727.926636 
	C696.718079,734.275818 698.424927,738.668030 704.776733,742.050720 
	C732.863403,757.008606 761.632324,770.620300 789.715454,785.562561 
	C807.798584,795.184082 826.019348,804.580261 843.524719,815.251282 
	C866.676819,829.364502 881.721008,849.926025 891.172729,875.033508 
	C905.513245,913.127563 913.994507,952.812744 923.339355,992.267578 
	C925.864746,1002.929810 928.298218,1013.613831 930.886902,1024.643921 
	C927.307068,1025.000000 923.614197,1025.000000 919.576294,1024.668701 
	C919.227600,1023.522339 919.378296,1022.671204 919.197388,1021.897461 
	C914.591003,1002.189941 910.862549,982.290161 905.703796,962.698181 
	C897.916138,933.122620 890.447998,903.462097 878.415222,875.225769 
	C871.693909,859.453674 862.932068,845.027344 849.808350,833.646606 
	C847.953430,832.038086 845.947327,831.000854 843.271790,830.498962 
	C833.981506,828.756348 827.005127,833.281006 820.513611,838.523315 
	C796.210327,858.150024 778.369873,882.723572 765.926392,911.288940 
	C753.777588,939.177795 745.635742,968.221802 741.590027,998.348999 
	C740.404602,1007.176514 738.779358,1016.013855 739.000000,1025.000000 
	C735.638733,1025.000000 732.277405,1025.000000 728.376709,1024.584961 
	C728.426392,1020.063293 729.190308,1015.972839 729.576050,1011.847046 
	C731.889221,987.104797 737.403198,963.024902 744.593811,939.305176 
	C752.580994,912.958130 764.606689,888.574158 780.597717,866.145752 
	C789.235596,854.030640 798.554871,842.578430 810.440796,833.404358 
	C816.239990,828.928223 822.580750,825.362915 830.289368,821.209839 
	C785.732788,795.423096 740.611450,772.898438 696.338989,747.728394 
	C695.875977,753.063965 692.985657,757.589417 693.919861,762.656433 
	C698.732849,788.760559 703.323120,814.900330 707.149048,841.169739 
	C708.977295,853.722595 706.061462,858.605774 693.899292,862.289185 
	C688.190186,864.018311 682.256653,865.005676 676.426575,866.336792 
	C667.497803,868.375183 658.570496,870.420166 648.559631,872.710144 
	C653.517883,875.679932 657.306152,878.093323 661.226929,880.267883 
	C669.981140,885.123474 678.466370,890.381226 686.352112,896.564087 
	C693.125977,901.875122 694.065979,906.880615 689.770264,914.348938 
	C671.330322,946.407471 651.632935,977.693420 631.836060,1008.921814 
	C628.570618,1014.072815 624.362671,1018.776611 623.000000,1025.000000 
	C619.638733,1025.000000 616.277405,1025.000000 612.548218,1024.661743 
	C613.625427,1021.511414 614.907654,1018.600769 616.540771,1015.902527 
	C634.209167,986.712158 651.924744,957.550476 669.646729,928.392639 
	C673.947754,921.316162 678.319214,914.282471 682.804260,906.991699 
	C674.228271,900.773865 665.529663,895.628601 656.723450,890.636475 
	C650.497742,887.107239 644.108276,883.682739 639.541321,877.972229 
	C633.945251,870.974915 635.710754,865.626343 644.295654,863.589417 
	C659.159485,860.062866 674.092041,856.826721 688.958374,853.310364 
	C696.035522,851.636230 697.429565,849.001892 696.511963,841.829651 
	C694.764893,828.174133 693.242432,814.489624 691.664490,800.812805 
	C690.579407,791.408752 688.694641,782.115784 688.346619,772.270996 
	C664.026550,805.676758 633.573242,830.533142 596.656982,847.501709 
	C594.741882,848.382019 593.355042,849.552307 592.492615,851.516907 
	C589.751465,857.761597 586.775330,863.905518 584.125488,870.187744 
	C570.259705,903.060181 560.581238,937.295288 551.645996,971.734497 
	C547.064697,989.392029 542.386963,1007.048950 539.000000,1025.000000 
	C535.638733,1025.000000 532.277405,1025.000000 528.514038,1024.617310 
	C541.400208,966.692139 554.873108,909.205505 580.216614,854.613770 
	C571.724976,857.617126 564.270752,860.522583 556.638000,862.840515 
	C552.781311,864.011719 550.999573,865.952087 550.306702,869.921509 
	C547.904419,883.683777 544.508362,897.227112 540.451721,910.599426 
	C540.060730,911.888306 540.313293,913.641052 537.581604,914.001526 
	C540.715027,898.238586 543.790710,882.766052 547.024902,866.496216 
	C539.522278,868.329834 533.107605,869.914429 526.683044,871.458069 
	C524.567871,871.966309 524.472656,873.604736 524.269226,875.308838 
	C522.634583,889.001465 521.210571,902.726501 519.182251,916.361267 
	C518.411377,921.542908 519.268677,927.111694 516.274963,931.934326 
	C515.651978,912.080566 519.345825,892.587708 521.194824,872.714172 
	C515.022034,873.635315 509.458313,874.532837 503.872833,875.264282 
	C501.784851,875.537659 500.604797,876.244019 500.260925,878.535583 
	C497.673676,895.776611 495.074860,913.017395 492.249054,930.220337 
	C491.605042,934.141174 491.976501,938.293579 489.838959,941.972107 
	C489.410553,919.694153 494.510193,898.021790 497.582245,875.190674 
	C491.180023,876.284241 485.432861,876.244507 479.685394,875.511536 
	C477.397919,875.219849 476.685822,876.946594 476.330109,878.993713 
	C474.139740,891.599304 472.734772,904.302979 471.208771,916.998535 
	C470.577789,922.248291 471.150879,927.801025 468.289581,932.715027 
	C467.850372,913.527771 470.603027,894.646851 473.846100,875.669312 
	C467.023834,874.594055 460.693817,873.596436 453.977051,872.537781 
	C451.364624,887.016479 448.836334,901.028809 446.308075,915.041138 
	C445.742554,914.944153 445.177063,914.847107 444.611542,914.750122 
	C444.468018,900.237244 448.815308,886.276794 450.977173,871.690552 
	C443.698212,869.882202 436.755829,867.841370 429.731262,864.784851 
	C429.560028,866.384766 429.376312,867.338318 429.367676,868.293457 
	C429.146606,892.768738 429.381714,917.237061 428.515594,941.720337 
	C427.703827,964.667236 427.721039,987.645691 426.454498,1010.589783 
	C426.190857,1015.365906 425.707153,1020.241882 427.000000,1025.000000 
	C423.969391,1025.000000 420.938812,1025.000000 417.347321,1024.541504 
	C416.689941,1017.280029 416.218475,1010.441711 417.293823,1003.702087 
	C417.882904,1000.009888 416.690521,999.135681 413.176971,998.993225 
	C402.751434,998.570618 392.265411,998.495483 381.962067,996.749207 
	C377.328094,995.963806 376.196625,997.266663 376.198700,1001.721863 
	C376.202332,1009.485168 377.221497,1017.340454 375.000000,1025.000000 
	C374.250000,1025.000000 373.500000,1025.000000 372.318665,1024.538574 
	C372.140747,1016.110962 372.425598,1008.145447 372.623322,1000.177734 
	C372.667023,998.416870 373.085876,996.069031 370.710052,995.585449 
	C361.006958,993.610596 351.676575,990.272888 341.776154,987.352478 
	C340.309082,1000.249878 339.202667,1012.587463 339.000000,1025.000000 
	C337.611115,1025.000000 336.222198,1025.000000 334.539520,1024.610107 
	C335.232788,1012.006714 336.193726,999.791016 337.238831,987.582520 
	C337.375336,985.987793 336.882385,985.010132 335.449158,984.478027 
	C328.652344,981.954651 321.849854,979.446533 314.797211,976.839783 
	C311.669373,993.161072 310.355835,1009.155823 308.000000,1025.000000 
	C305.299988,1025.000000 302.599976,1025.000000 299.504486,1024.603027 
	C301.282593,1008.430847 303.443268,992.653870 305.632782,976.880859 
	C308.710175,954.711853 311.307312,932.461548 315.014282,910.397949 
	C320.815125,875.872253 327.739227,841.554932 337.766205,807.950012 
	C338.121277,806.760132 338.346497,805.775269 337.482391,804.707214 
	C332.367279,798.384460 328.264893,791.384521 324.274689,784.121399 
	C319.923492,790.480652 315.869263,796.529419 311.687805,802.488892 
	C304.901947,812.160278 298.084229,821.810303 291.172882,831.392151 
	C288.466583,835.144165 288.815460,838.460388 291.927917,841.663391 
	C293.783264,843.572571 295.650604,845.471680 297.558868,847.327698 
	C302.206421,851.847717 307.689758,855.456909 311.837006,860.529419 
	C316.723145,866.505737 316.652710,868.789734 310.324524,872.932251 
	C298.768616,880.496887 287.092682,887.886414 275.302521,895.079773 
	C271.870880,897.173462 270.852570,899.567688 271.676300,903.328552 
	C273.664215,912.404907 275.495056,921.515808 277.368103,930.617126 
	C281.642822,951.388611 286.980743,971.928528 290.516632,992.866943 
	C292.334503,1003.631775 295.696838,1014.112488 297.000000,1025.000000 
	C294.299988,1025.000000 291.599976,1025.000000 288.376526,1024.585327 
	C285.812958,1010.014832 281.604004,996.329041 278.772064,982.332642 
	C273.638367,956.960144 267.480743,931.794006 262.909180,906.300537 
	C261.492004,898.397583 263.500854,891.787598 270.914337,887.506104 
	C275.671082,884.758972 280.327087,881.837830 285.043457,879.020203 
	C291.427185,875.206299 297.825439,871.416748 304.027100,867.729980 
	C303.674133,864.999817 301.829102,864.255554 300.488922,863.084595 
	C295.229492,858.489197 289.378113,854.555603 284.903839,849.082703 
	C277.129791,839.573303 276.862366,836.330750 283.137024,825.880859 
	C284.335846,823.884338 285.580444,821.900513 286.973846,820.037903 
	C297.347443,806.171570 307.786621,792.354187 318.139343,778.472351 
	C319.504272,776.642090 321.675201,774.840759 319.970276,771.761475 
	C318.380493,772.385132 316.940094,772.796143 315.644592,773.481201 
	C292.685455,785.621887 269.982513,798.266663 246.168762,808.720703 
	C244.287903,809.546326 243.720840,811.022339 243.104050,812.887390 
	C239.326904,824.308899 237.531326,836.045044 236.011871,847.963684 
	C232.534439,875.240662 231.282837,902.653137 230.502548,930.064941 
	C229.753769,956.370117 230.302353,982.711914 230.249298,1009.037598 
	C230.238586,1014.358521 230.086761,1019.679199 230.000000,1025.000000 
	C226.969406,1025.000000 223.938812,1025.000000 220.421417,1024.532227 
	C220.369064,956.039856 217.783936,887.850769 231.082977,820.342102 
	C225.434372,825.703491 221.920090,832.275757 218.650909,838.999390 
	C206.393265,864.209412 197.768967,890.785034 189.325089,917.418762 
	C178.125473,952.744507 170.097748,988.882751 162.000000,1025.000000 
	C158.969406,1025.000000 155.938812,1025.000000 152.454102,1025.000000 
M611.228394,652.106812 
	C607.483093,651.901245 607.366577,648.676453 606.954285,646.292480 
	C606.192200,641.884888 606.106079,637.364136 605.639709,632.900818 
	C604.739807,624.288757 604.496582,615.637024 604.689331,606.197632 
	C600.106079,614.302185 598.485840,622.611694 593.972656,629.604736 
	C590.326538,635.254272 586.204956,640.647278 579.410889,642.636780 
	C575.969849,643.644470 574.878784,645.455139 574.228455,648.819153 
	C571.649170,662.161804 565.750000,673.013550 551.278625,676.657654 
	C548.443176,677.371704 547.169983,679.058167 547.330139,682.068848 
	C547.567444,686.530762 546.163574,690.602783 543.732056,694.310486 
	C536.285400,705.665161 525.371643,710.277161 512.210754,710.080139 
	C509.810760,710.044189 508.710754,710.525513 507.681152,712.688477 
	C500.318909,728.154541 486.788483,733.292847 470.919983,733.647766 
	C467.550690,733.723145 465.280151,734.301086 463.097260,736.651611 
	C455.981140,744.314392 447.084900,747.457275 436.688690,747.483521 
	C430.672516,747.498657 424.948151,745.779602 419.115082,745.103027 
	C417.288422,753.424072 418.035675,755.051270 423.673676,754.578186 
	C438.910553,753.299683 454.052460,751.352722 468.994781,747.957703 
	C487.442780,743.766174 503.724121,734.672363 520.143982,725.825989 
	C548.468567,710.565857 574.304810,691.860352 597.616577,669.718018 
	C603.133667,664.477722 608.594727,659.029053 612.576782,651.705933 
	C617.818359,646.533203 621.776611,640.390442 625.831116,634.309326 
	C626.932739,632.657043 627.557007,630.193848 630.395203,630.486267 
	C631.789429,632.362427 630.691467,634.167542 630.240479,635.802917 
	C628.046326,643.758728 623.803772,650.738281 619.234009,657.490662 
	C617.652588,659.827332 617.631775,661.392883 619.531372,663.553345 
	C628.000854,673.185730 635.849792,683.283081 641.763367,694.752502 
	C642.274841,695.744507 642.769104,696.889465 644.615112,697.349121 
	C648.992371,692.335510 653.580627,687.164124 658.055786,681.896790 
	C659.205688,680.543335 658.886047,678.705627 658.732971,677.068909 
	C657.588501,664.832886 654.045532,653.260986 647.954529,642.646240 
	C640.299500,629.305786 628.383179,622.369141 612.496887,620.960876 
	C612.372437,626.852539 612.046753,632.570984 612.750000,638.333252 
	C613.310059,642.923035 614.283264,647.572815 611.228394,652.106812 
M412.422577,128.744690 
	C409.900360,145.474243 407.547394,162.231674 404.795929,178.923447 
	C402.987915,189.892059 400.642914,200.773529 398.459656,211.678253 
	C397.639954,215.772476 399.212921,217.233551 403.225189,216.628906 
	C406.015564,216.208389 408.848297,215.632980 411.640564,215.732269 
	C428.945557,216.347610 446.194397,214.148727 463.557465,215.461090 
	C480.626190,216.751190 497.728302,217.729492 514.520020,220.997498 
	C559.965942,229.842194 601.868652,247.734207 641.129761,271.994751 
	C649.611084,277.235596 657.518433,283.575958 668.452209,281.844604 
	C669.067322,281.747192 669.746094,282.122955 670.404114,282.215057 
	C679.903320,283.544464 689.336060,285.268188 698.597900,287.402283 
	C700.765076,284.240662 701.593994,280.996979 702.648926,277.865448 
	C716.030518,238.140869 731.305847,199.343216 756.971863,165.551376 
	C761.746826,159.264679 761.508362,152.660934 757.539185,145.973114 
	C749.129089,131.802551 738.779175,119.211662 726.082336,108.749542 
	C703.032471,89.756584 677.139465,75.560234 649.742126,63.813656 
	C606.709229,45.363293 561.908936,36.005459 515.093750,35.055500 
	C496.750122,34.683270 478.493378,34.989544 460.264313,36.511208 
	C447.171021,37.604176 434.240326,39.889275 421.939850,44.992569 
	C417.765594,46.724430 416.123810,49.209862 416.278870,53.704529 
	C416.824615,69.522804 416.183136,85.341553 415.170471,101.118179 
	C414.597656,110.042534 414.459137,119.052673 412.422577,128.744690 
M655.583069,492.054260 
	C660.253906,487.911041 665.384460,484.412292 671.551575,483.144958 
	C678.367065,481.744385 685.438904,481.350830 690.830200,486.745117 
	C695.713379,491.630951 694.839966,498.098816 693.790527,504.228699 
	C693.399353,506.513123 692.241516,509.028473 689.384583,508.893402 
	C686.359192,508.750397 686.021057,506.101013 685.861328,503.704254 
	C685.683777,501.041443 685.503906,498.395386 684.509033,495.874725 
	C683.423096,493.123474 681.417358,491.677521 678.485229,491.364532 
	C670.754150,490.539368 657.677551,498.632782 654.750305,506.258270 
	C655.558838,506.721954 656.343506,507.442444 657.246094,507.649811 
	C675.116577,511.755005 675.463318,540.917969 663.528198,549.876343 
	C659.776245,552.692505 657.710815,554.957092 659.076294,560.249573 
	C660.498352,565.761597 659.954712,566.170715 665.458801,564.024780 
	C690.585693,554.228882 704.601807,533.504944 705.503601,504.571564 
	C705.951843,490.188843 698.441345,479.564545 685.797913,472.804901 
	C673.085449,466.008362 660.824951,467.029541 649.270813,475.624603 
	C646.475220,477.704254 643.982361,480.186676 641.243286,482.348358 
	C639.824097,483.468353 638.173218,484.655487 636.242798,483.528046 
	C634.038757,482.240692 634.596436,480.072235 634.987915,478.145172 
	C635.354370,476.341461 636.339722,474.805756 637.498718,473.327972 
	C639.112183,471.270660 641.689087,470.067230 642.881592,467.226898 
	C637.585693,463.602295 632.366577,460.068573 625.986572,457.938568 
	C625.338867,460.484650 624.801758,462.060913 624.546021,463.681610 
	C620.654480,488.344879 614.957703,512.587036 607.160034,536.300232 
	C599.992920,558.095764 588.515869,576.406921 566.059753,585.614441 
	C562.613403,587.027649 560.871399,586.742676 559.686218,583.085999 
	C558.562012,579.617432 557.222229,576.183655 555.615601,572.912231 
	C546.846924,555.058289 529.178772,545.524536 510.669495,548.255859 
	C497.332886,550.223755 484.182220,553.004944 471.243500,556.735229 
	C452.414917,562.163574 433.430115,563.343384 413.976196,560.606140 
	C400.176086,558.664490 387.268005,553.895630 374.016785,550.144775 
	C365.470398,547.725647 356.899139,543.723267 347.774353,546.369385 
	C337.727966,549.282837 328.078064,552.970520 326.714722,565.781311 
	C326.240051,570.241516 323.282166,572.354797 318.319916,572.446533 
	C313.924591,572.527710 311.759338,569.421753 308.928253,567.332275 
	C306.814880,570.427063 310.889557,572.320068 309.341461,575.589478 
	C305.930573,582.792664 306.681030,590.481384 308.902222,597.992126 
	C309.470520,599.913696 310.270966,601.745667 312.304108,602.689453 
	C317.393951,605.052246 318.057587,609.238220 317.629364,614.340210 
	C317.258728,618.756409 315.651855,623.060242 316.831329,627.679810 
	C318.567596,634.480164 322.670807,639.725891 327.695831,644.077820 
	C331.389282,647.276489 332.270752,650.210815 331.026672,654.884094 
	C327.486664,668.182007 331.245636,676.429932 343.449005,683.522156 
	C345.161407,684.517273 346.485382,685.755188 346.325806,687.817017 
	C345.675049,696.227539 350.955627,702.174805 355.185730,708.373169 
	C357.728363,712.098938 361.498810,714.752075 366.795197,712.903137 
	C370.444611,711.629150 372.523468,712.953979 374.456696,716.765991 
	C380.054749,727.804443 390.975342,738.950134 409.308960,732.726257 
	C411.427765,732.007019 413.395233,731.783813 415.575592,732.780151 
	C435.644409,741.950684 447.683777,738.133240 459.481628,726.906372 
	C462.442688,724.088501 465.676910,722.516541 469.837189,724.336914 
	C470.702759,724.715637 471.800140,724.608948 472.793610,724.644165 
	C484.382904,725.056213 492.783905,719.655273 497.693970,709.564575 
	C501.006134,702.757874 504.766541,699.721191 512.982056,700.476318 
	C527.180542,701.781433 534.608826,695.668579 538.294434,681.881165 
	C539.062378,679.008179 539.083679,675.925476 539.946106,673.090576 
	C540.883728,670.008423 541.127747,665.492188 546.668945,668.159302 
	C547.558594,668.587463 549.176331,667.687561 550.391052,667.226624 
	C560.747009,663.296387 563.961243,654.184631 566.564209,644.696838 
	C567.571228,641.026367 567.915466,637.134216 569.249756,633.603088 
	C571.100891,628.704346 574.264526,628.502319 577.432251,632.930725 
	C583.264282,628.977478 587.636047,623.734619 589.858582,617.159546 
	C593.007996,607.841980 596.991333,598.891968 600.736084,589.829468 
	C602.959473,584.448730 605.322632,579.086853 607.003540,573.529236 
	C610.301208,562.626343 614.365723,551.800781 612.689880,540.016113 
	C612.482727,538.558655 612.571045,536.982849 612.894470,535.545593 
	C613.295166,533.764526 614.002441,531.729797 616.242310,531.772339 
	C619.177307,531.827942 618.332764,534.370850 618.269653,535.960022 
	C618.100159,540.223633 619.100708,544.250183 620.551147,548.139648 
	C623.502258,556.053528 629.275574,561.022095 637.710144,564.119141 
	C637.267944,555.855042 641.038513,551.288269 648.171387,549.145996 
	C649.891724,548.629333 651.555237,547.671082 653.022888,546.609131 
	C659.202637,542.138000 662.988953,536.109314 662.498718,528.394592 
	C662.049805,521.328918 657.919312,516.503052 650.939392,513.898193 
	C649.585754,515.769348 648.167908,518.289429 645.459900,516.796326 
	C642.726135,515.289185 643.410706,512.357239 644.024780,510.024292 
	C645.853271,503.077179 649.677673,497.291107 655.583069,492.054260 
M436.817261,308.585754 
	C467.068146,314.095001 497.631378,314.850250 528.269714,314.891937 
	C535.201538,314.901367 542.195251,315.943817 549.051331,317.137634 
	C578.820496,322.320984 606.900391,331.940674 632.771790,348.014404 
	C650.282043,358.893494 666.890076,370.674408 680.699402,386.089294 
	C686.078064,392.093414 690.752991,398.593750 692.756714,406.548431 
	C693.973633,411.379761 694.349731,416.245514 689.023071,419.273315 
	C687.671570,420.041595 687.462402,421.270325 687.355408,422.658997 
	C686.557312,433.018677 683.792480,442.912720 680.239624,452.624146 
	C679.750793,453.960327 678.654846,455.265076 679.657410,457.068481 
	C680.305115,457.233978 681.083191,457.575745 681.876099,457.614502 
	C700.859253,458.541931 719.251831,456.444489 737.069580,449.029785 
	C771.851257,434.555573 787.153564,390.903412 768.901123,356.537689 
	C753.935303,328.359955 729.510681,311.408234 700.142883,301.217255 
	C670.723022,291.008179 640.217407,291.602051 609.787476,294.677979 
	C588.928284,296.786560 568.068054,298.634888 547.123840,299.027161 
	C525.648865,299.429352 504.177460,299.505188 482.680328,298.570312 
	C458.624268,297.524109 434.998413,294.104126 411.962341,287.470642 
	C374.337982,276.636230 339.072662,260.178650 305.241913,240.583740 
	C297.557831,236.133087 289.514862,232.561279 280.805420,230.705200 
	C266.416595,227.638809 254.474670,237.368301 256.508850,250.850250 
	C258.676300,265.215668 264.082367,278.334808 272.958282,290.009735 
	C290.055237,312.498230 312.528229,328.334900 336.654419,342.231354 
	C340.772644,344.603424 341.640411,342.117432 342.265961,339.119568 
	C345.372375,324.232178 352.033386,311.757385 363.171326,300.832611 
	C369.111053,295.006531 374.117676,293.847534 381.152496,295.600464 
	C399.361603,300.137756 417.448029,305.199432 436.817261,308.585754 
M610.551392,349.027039 
	C605.107361,346.523926 599.748535,343.811554 594.203674,341.556274 
	C576.430237,334.327301 558.133240,328.519409 539.026917,326.676941 
	C524.823975,325.307281 510.434387,326.383881 496.129272,325.374969 
	C479.547241,324.205444 462.957428,323.218933 446.650238,319.827759 
	C423.896576,315.096008 401.138947,310.358215 378.498352,305.124084 
	C372.406281,303.715698 368.463379,305.456940 365.207306,310.087006 
	C363.682373,312.255371 362.268127,314.566650 361.216431,316.992126 
	C354.861633,331.648285 348.489990,346.303711 343.279358,361.419891 
	C341.364655,366.974487 342.332764,372.482117 343.786987,377.905640 
	C345.851776,378.225189 347.289337,377.225739 348.834045,376.715851 
	C361.058777,372.680664 373.295624,372.743378 385.656189,376.200867 
	C406.828003,382.122986 422.226837,405.164093 422.373077,423.777863 
	C422.388092,425.692719 421.948029,428.442383 424.760559,428.468811 
	C432.523254,428.541779 439.216187,431.527161 445.192230,435.682770 
	C446.950500,434.484711 447.147522,433.074860 447.503113,431.853882 
	C450.340607,422.111633 455.204376,413.483826 461.596771,405.656128 
	C480.526947,382.475342 511.969971,375.459381 538.687073,388.772217 
	C556.096375,397.447144 567.777588,411.221283 573.409973,429.909119 
	C574.591675,433.829987 575.803101,436.479797 580.538147,433.784790 
	C582.886719,432.448090 585.531616,432.664459 588.291565,433.270081 
	C597.257812,435.237488 605.876282,438.241577 614.499695,441.292358 
	C616.579163,442.028015 618.622437,443.562653 621.203613,442.515778 
	C623.061218,434.241364 624.725891,425.947235 626.841431,417.769745 
	C627.916016,413.615967 627.811829,410.040649 625.221008,406.468262 
	C615.544922,393.126160 612.604858,378.662903 617.508057,362.607910 
	C620.124756,354.039764 619.707764,353.912415 610.551392,349.027039 
M372.248322,498.848358 
	C372.547699,497.520874 372.005157,497.011993 370.679016,497.159943 
	C368.532928,497.399414 366.324738,497.354065 364.242554,497.848877 
	C352.733032,500.584137 341.785736,499.466217 331.435608,493.510071 
	C328.325317,491.720215 325.132904,490.073120 322.031677,488.389709 
	C307.320007,509.561127 305.664215,552.965149 318.976135,563.873718 
	C321.395416,562.475952 321.090668,559.773926 321.423798,557.691650 
	C322.210602,552.773682 324.584015,548.944214 328.267181,545.878540 
	C335.270844,540.049011 343.320679,536.830872 352.507996,536.664551 
	C363.002747,536.474670 372.961029,539.206909 382.650574,542.745300 
	C399.189819,548.785034 416.022949,552.453735 433.755493,552.863953 
	C449.561096,553.229553 464.338196,549.083862 479.316345,545.256958 
	C494.762329,541.310608 510.259735,536.448059 526.428040,539.755310 
	C540.446106,542.622681 552.985352,548.229431 560.487549,561.749695 
	C562.948425,566.184570 564.331909,571.133362 566.764160,575.372375 
	C569.086060,574.929932 570.255493,573.687195 571.598755,572.725525 
	C582.799561,564.707092 590.251526,553.789795 595.440796,541.274658 
	C606.316895,515.044067 612.266052,487.396759 618.488342,459.836761 
	C619.223999,456.578369 618.188293,454.469666 614.854797,453.315430 
	C608.723877,451.192474 602.579773,449.050934 596.628174,446.483643 
	C591.597290,444.313568 587.530640,443.852875 581.787476,446.131958 
	C575.816650,448.501373 575.663391,451.700134 575.268066,456.496887 
	C574.293762,468.319183 572.307373,479.710968 564.203430,489.386871 
	C546.979858,509.951294 525.903870,520.713623 498.552063,517.448608 
	C472.775055,514.371643 451.736938,495.754730 445.586456,470.506775 
	C443.598114,462.344482 443.134705,454.186981 444.333008,446.045715 
	C439.806915,443.823547 435.772400,441.411652 431.438538,439.809662 
	C423.740631,436.964325 422.929871,437.562531 421.005524,445.343658 
	C420.455078,447.569427 419.918701,449.798645 419.203369,452.734070 
	C421.926910,450.861389 424.099854,449.359436 426.281403,447.869995 
	C427.887390,446.773468 429.694702,445.907990 431.137421,447.792480 
	C432.404510,449.447571 431.114624,450.964813 430.005371,452.209412 
	C429.013580,453.322144 427.864502,454.302826 426.732483,455.281219 
	C419.018860,461.948242 410.507996,467.407623 401.668457,472.480804 
	C390.595276,478.835907 382.487640,487.766388 379.313934,500.584900 
	C376.660889,511.300568 379.477325,520.595520 387.265259,527.932312 
	C395.272034,535.475281 405.121887,537.822815 415.458923,533.400085 
	C424.201019,529.659851 432.547699,529.386169 441.623962,532.037476 
	C452.020386,535.074402 461.220642,529.689819 465.447205,519.163208 
	C466.128601,517.466187 466.641907,515.701599 467.325378,514.005493 
	C467.822052,512.772827 468.366577,511.407471 470.087921,511.629150 
	C472.050049,511.881805 472.394196,513.421631 472.281982,514.980103 
	C471.810974,521.521240 470.845032,527.958069 466.011353,532.939453 
	C457.881317,541.317932 448.328278,544.159180 436.899017,540.660950 
	C431.752686,539.085815 426.340424,536.761658 420.962769,539.945251 
	C416.825043,542.394775 412.376526,543.209839 407.684052,543.759033 
	C393.279999,545.445068 379.005859,537.324585 373.445038,523.947571 
	C370.131409,515.976318 369.803314,507.817474 372.248322,498.848358 
M555.180847,287.615387 
	C582.357117,285.424316 609.533386,283.233215 636.968079,281.021301 
	C636.220215,278.568420 634.600159,278.242676 633.374878,277.501160 
	C612.215576,264.696075 589.779541,254.549026 566.791626,245.551315 
	C547.370300,237.949615 527.376587,232.509659 506.779663,229.153732 
	C489.526245,226.342529 472.164368,224.366058 454.742523,223.568985 
	C438.445221,222.823364 422.083771,223.138962 405.762115,223.504166 
	C401.657928,223.596008 396.327026,223.429642 394.720276,229.097855 
	C391.719604,239.683426 388.001251,250.017990 383.625397,260.088654 
	C381.920380,264.012543 383.397949,265.567413 386.726562,266.712708 
	C395.379242,269.689819 403.897583,273.149292 412.699768,275.583679 
	C445.420074,284.632904 478.889130,288.392639 512.767090,288.531921 
	C526.587769,288.588745 540.411194,287.950165 555.180847,287.615387 
M511.144257,391.911957 
	C499.124786,391.683289 488.160309,394.694489 478.569427,402.228027 
	C465.383789,412.585175 457.821075,426.371460 454.548096,442.495758 
	C451.981476,455.140015 452.450989,467.761627 459.138794,479.269684 
	C472.249573,501.830017 494.333466,512.082642 519.698364,506.489624 
	C551.455933,499.487030 572.052734,472.708130 564.623230,436.866180 
	C560.018066,414.649567 541.730957,394.081116 511.144257,391.911957 
M670.011536,454.641724 
	C673.485657,441.323944 676.457520,427.904297 679.047180,414.378021 
	C680.291321,407.879730 679.025269,402.752930 674.845764,397.798737 
	C663.583069,384.448578 650.200806,373.562622 635.859558,363.783142 
	C633.327148,362.056274 630.701111,360.216827 627.036621,359.551239 
	C624.672546,367.166199 623.157532,374.690765 623.867065,382.538757 
	C624.568665,390.299835 628.849182,396.542358 632.837708,402.861511 
	C634.604858,405.661438 635.195923,408.272278 634.596313,411.735352 
	C632.863953,421.740662 629.704285,431.373016 627.510193,441.248291 
	C626.781006,444.530273 627.003723,446.718414 630.716187,448.202240 
	C635.639587,450.170044 640.691711,452.323334 644.899170,455.456787 
	C651.333557,460.248596 657.690674,462.424072 665.281616,458.805298 
	C665.704468,458.603760 666.265564,458.665100 666.763489,458.653107 
	C668.886780,458.601868 669.610962,457.265594 670.011536,454.641724 
M383.450928,786.019287 
	C392.899353,791.789734 402.784821,796.387146 413.954407,797.697693 
	C417.759186,798.144226 419.573425,797.334900 419.836975,792.822021 
	C420.282166,785.199097 422.310364,777.766479 424.799713,770.520813 
	C425.292389,769.086731 425.515533,767.204590 427.661743,767.095520 
	C428.433807,767.911926 428.096069,768.723816 427.863159,769.502197 
	C425.477875,777.474304 424.105438,785.651367 422.688599,793.834595 
	C422.072083,797.395569 422.970764,798.819519 426.596069,798.760010 
	C433.754211,798.642517 440.915527,798.609619 448.074158,798.679810 
	C451.403351,798.712524 452.944794,797.142639 453.231323,793.965637 
	C453.484558,791.157593 453.735901,788.344055 454.146851,785.556396 
	C455.423218,776.897827 457.524689,768.406067 459.751068,760.064636 
	C458.355347,759.052551 457.256744,759.667969 456.140564,759.876465 
	C442.375946,762.447510 428.505280,764.117859 414.495575,763.272583 
	C403.208069,762.591492 393.099457,758.699524 384.890930,750.571899 
	C383.036041,748.735352 382.025208,746.076355 379.266235,744.774414 
	C373.133118,750.150452 367.200684,755.697205 361.989532,761.988892 
	C360.699219,763.546753 360.040771,764.984619 361.604187,766.826599 
	C365.472443,771.384155 370.008759,775.190979 374.642120,779.480469 
	C379.546875,771.341980 381.958618,762.441345 387.720947,755.085083 
	C389.631531,757.432251 388.291931,758.889526 387.693665,760.269165 
	C385.310425,765.764709 383.118500,771.384583 380.210327,776.598389 
	C377.793884,780.930481 378.360718,783.665710 383.450928,786.019287 
M349.396912,438.918182 
	C346.617188,461.803101 356.140503,475.672791 376.807159,479.187012 
	C379.706848,479.680084 381.555267,478.913116 383.338074,476.856873 
	C386.849823,472.806610 390.852722,469.064178 395.560181,466.708344 
	C404.587677,462.190491 408.267242,454.481384 411.180115,445.448608 
	C413.780334,437.385529 412.630646,430.785858 407.884277,424.000000 
	C399.167725,411.538086 382.074524,406.915863 368.568207,413.723450 
	C358.350525,418.873505 352.598602,427.423157 349.396912,438.918182 
M554.304504,722.391846 
	C558.770386,734.806946 563.236267,747.222046 567.836975,760.011963 
	C585.861328,749.924744 602.021606,738.834351 616.898376,725.877747 
	C618.510315,724.473938 618.983398,723.046265 618.082703,721.054565 
	C612.197266,708.039429 605.412170,695.501282 598.346375,682.756287 
	C596.917786,683.736572 595.787476,684.402100 594.780762,685.219788 
	C582.361755,695.306763 569.583374,704.922729 556.241760,713.744385 
	C552.770264,716.039734 551.519104,718.130310 554.304504,722.391846 
M511.076111,740.649292 
	C507.235565,743.112793 501.525482,743.553284 501.516724,750.059814 
	C501.506226,757.873108 500.839264,765.683228 501.967285,773.486450 
	C502.642609,778.157959 502.275360,783.008423 504.240021,787.474792 
	C505.038788,787.474792 505.558075,787.585938 506.010468,787.458862 
	C525.544128,781.973083 543.338989,772.444519 561.436340,763.615112 
	C564.104187,762.313416 563.691406,760.407104 562.898254,758.162292 
	C559.794678,749.378540 556.890442,740.522827 553.685303,731.777039 
	C552.174927,727.655762 551.139954,723.225037 547.976685,719.735046 
	C535.956421,727.061890 524.070496,734.081543 511.076111,740.649292 
M582.015991,819.737671 
	C583.293274,826.630066 584.325745,833.588135 586.839600,840.163574 
	C600.982300,836.033569 632.126709,816.739807 642.734985,805.899475 
	C644.118652,804.485596 644.016052,803.243713 643.915955,801.482605 
	C643.207031,789.010681 638.164124,777.682678 634.788452,765.917664 
	C634.567017,765.146057 634.430664,764.252930 633.012207,764.263611 
	C632.187134,764.968750 631.180298,765.809814 630.194458,766.674927 
	C617.320557,777.971863 604.617432,789.571838 589.712830,798.152588 
	C582.088684,802.541870 577.579956,807.342590 581.335144,816.479736 
	C581.641052,817.223877 581.612976,818.105225 582.015991,819.737671 
M341.606079,395.269714 
	C341.025665,405.550354 340.116699,415.797424 338.735260,426.006226 
	C336.545807,442.185883 332.246887,457.885193 328.018158,473.600006 
	C327.458527,475.679718 327.103638,477.424744 329.195496,478.891357 
	C336.089020,483.724304 343.371918,487.733490 351.905182,488.534241 
	C356.436646,488.959473 361.109772,489.086212 365.832825,485.761169 
	C357.690002,481.326508 350.987762,476.018951 346.659454,468.293915 
	C342.377350,460.651367 341.249695,452.360901 341.609955,443.706879 
	C341.985138,434.692871 345.515350,426.859009 350.609924,419.769196 
	C356.323212,411.818390 364.144012,406.472504 373.705566,404.103210 
	C386.915344,400.829834 398.595795,404.510284 409.417725,413.376526 
	C409.313995,412.062592 409.406494,411.553436 409.225037,411.175995 
	C397.743835,387.294098 372.852570,376.255890 346.899872,387.847473 
	C343.896545,389.188873 341.892761,390.999115 341.606079,395.269714 
M505.573975,798.204102 
	C508.194397,808.068481 510.814819,817.932861 513.527100,828.143005 
	C532.440979,820.298767 549.850098,810.984436 566.856384,800.888855 
	C573.661743,796.848938 573.676880,796.745056 571.676819,788.846497 
	C570.089600,782.578857 568.347107,776.349609 566.590698,770.126709 
	C566.252319,768.927979 566.099304,767.454712 564.279785,766.890015 
	C544.902100,776.238220 525.803528,786.679932 504.696930,792.075134 
	C505.022644,794.501282 505.219696,795.969055 505.573975,798.204102 
M386.592224,937.344238 
	C384.787354,937.564270 383.047852,936.286804 380.984070,937.166443 
	C380.794830,937.825989 380.444580,938.586853 380.370087,939.373779 
	C378.818909,955.756531 378.922272,972.268250 376.530945,988.586304 
	C376.266815,990.388611 376.960114,991.318848 378.854492,991.663513 
	C391.481781,993.960754 404.250916,993.600769 417.197693,994.128540 
	C417.372742,993.069763 417.585602,992.280701 417.622864,991.483398 
	C418.353333,975.850098 418.798492,960.213440 418.814178,944.557556 
	C418.818573,940.193176 417.222137,939.157410 413.271759,939.308899 
	C404.606201,939.641113 395.989410,938.859436 386.592224,937.344238 
M396.538025,933.707336 
	C402.468262,934.651794 408.444916,934.647095 414.429626,934.772217 
	C418.141724,934.849792 419.800720,933.951233 419.737335,929.781555 
	C419.509857,914.815491 419.545654,899.842834 419.708954,884.875183 
	C419.745911,881.487549 418.527924,879.847168 415.297119,879.698059 
	C406.805328,879.306091 398.555054,877.326660 390.222321,875.912537 
	C387.577850,875.463806 386.525299,876.287842 386.355652,878.877258 
	C385.390106,893.613586 383.158722,908.209229 381.432892,922.861816 
	C380.422455,931.440491 380.555145,931.485962 389.226074,932.824585 
	C391.352112,933.152832 393.490662,933.399841 396.538025,933.707336 
M339.408569,790.566589 
	C341.987610,793.312439 341.914581,790.221924 342.272034,789.100525 
	C344.616821,781.744263 348.153229,774.948181 352.355133,768.556152 
	C354.088867,765.918701 354.306702,764.139160 352.512756,761.534424 
	C345.230255,750.960571 343.438629,738.874023 343.393158,726.392456 
	C343.388397,725.079163 343.134430,723.274231 345.949463,722.766968 
	C346.494995,736.279419 348.246399,749.421875 357.460663,760.808716 
	C364.615814,753.644348 370.888336,746.399658 378.515656,740.447632 
	C375.835144,735.595337 371.028503,733.033325 369.081421,728.334839 
	C367.836517,725.330811 365.868591,724.297363 362.547882,724.246399 
	C356.402496,724.152100 351.428986,721.342285 347.768860,716.270081 
	C346.537689,714.563965 345.810944,712.414734 343.549225,711.097595 
	C338.610199,718.565308 335.943359,726.947266 332.788361,735.103699 
	C325.281403,754.510925 327.016449,772.859070 339.408569,790.566589 
M375.512543,788.356873 
	C372.287445,797.325378 370.145752,806.441223 369.850311,816.085876 
	C369.728271,820.068665 370.791046,822.237671 373.985168,824.091064 
	C386.736786,831.489990 400.270020,836.953918 414.471924,840.834290 
	C418.621918,841.968140 422.770905,842.991699 427.894928,842.890747 
	C421.879700,830.693420 419.684937,818.021729 418.651978,805.088684 
	C418.479889,802.934265 417.058777,802.513794 415.205994,802.327087 
	C402.510284,801.047607 391.109924,796.219116 380.374329,789.549683 
	C379.051788,788.728088 377.913177,787.135132 375.512543,788.356873 
M541.748413,857.071777 
	C554.543823,853.376648 566.904114,848.455811 579.361755,843.801208 
	C582.142334,842.762329 582.669495,841.419739 581.942932,838.531799 
	C580.366882,832.267761 579.294373,825.876526 578.036011,819.533325 
	C577.284912,815.747742 577.449463,811.739075 575.468262,807.987244 
	C566.197083,813.160950 557.340332,818.434753 548.183044,823.121216 
	C538.860840,827.892090 529.253235,832.107483 519.747803,836.516846 
	C516.895081,837.840149 516.992676,839.902954 518.029968,842.309021 
	C520.334229,847.654053 522.764526,852.949524 524.888611,858.365234 
	C525.841003,860.793518 527.244751,861.288452 529.503601,860.631409 
	C533.329834,859.518433 537.168762,858.449341 541.748413,857.071777 
M470.336700,800.195129 
	C467.044556,800.582275 463.758514,801.206360 460.458618,801.290894 
	C457.074524,801.377747 456.103485,803.051697 456.339355,806.046265 
	C457.337982,818.724976 460.723419,830.749084 465.982697,842.540710 
	C480.540222,839.985474 494.282654,835.747925 507.727264,830.454834 
	C509.269287,829.847778 510.287323,829.037109 509.759766,827.105164 
	C506.761108,816.124207 503.809357,805.130493 500.694977,793.597961 
	C490.734039,796.602539 481.015106,798.552856 470.336700,800.195129 
M602.658813,776.129395 
	C611.150696,769.681763 619.062683,762.569763 626.641174,755.084351 
	C627.894348,753.846558 629.746460,752.634949 628.991882,750.492981 
	C626.429993,743.220581 623.725708,735.998413 620.886841,728.240540 
	C618.772827,729.832336 617.285034,730.860901 615.898254,732.011230 
	C604.364868,741.578003 592.367676,750.479614 579.427979,758.092407 
	C569.085754,764.177002 569.092773,764.278198 572.252319,775.766174 
	C573.856384,781.598633 574.632446,787.682739 577.033508,793.516296 
	C578.248047,793.057251 579.076599,792.885071 579.753113,792.466858 
	C587.543274,787.651794 594.879822,782.194763 602.658813,776.129395 
M342.693878,975.873474 
	C341.092468,980.850830 343.390564,983.210327 348.054077,984.418762 
	C353.203308,985.753113 358.233917,987.537903 363.353119,988.996826 
	C372.426514,991.582764 373.075989,991.039307 373.645447,981.541321 
	C374.491302,967.433105 375.368103,953.326233 376.356995,939.227600 
	C376.509827,937.048645 376.107666,935.643494 373.871033,935.119934 
	C365.037781,933.051941 356.331665,930.549683 347.858826,926.830505 
	C346.174042,943.330566 344.555634,959.180664 342.693878,975.873474 
M381.633301,889.237000 
	C381.970367,885.605286 382.287537,881.971497 382.650726,878.342407 
	C382.946472,875.387512 381.879150,873.912048 378.747192,873.186584 
	C373.587097,871.991150 368.491455,870.371033 363.534607,868.492004 
	C359.684692,867.032593 357.999481,867.473633 357.149780,871.967285 
	C354.348114,886.783752 351.015137,901.487244 348.972260,916.461243 
	C348.389496,920.733154 349.368439,922.519165 353.084442,923.894836 
	C358.540070,925.914429 363.976868,927.927124 369.664612,929.222290 
	C376.734650,930.832275 377.157959,930.306396 377.721680,923.190430 
	C378.597534,912.133911 379.686829,901.085266 381.633301,889.237000 
M497.973389,774.090454 
	C497.389557,765.397278 497.447235,756.700989 498.519318,747.245789 
	C487.314392,751.980896 476.738953,755.838501 465.693604,758.184692 
	C463.656189,758.617493 463.064087,760.094116 462.631744,761.693604 
	C459.769684,772.282043 457.990692,783.082275 456.459137,793.927368 
	C456.056152,796.780762 457.152130,797.927490 460.144592,797.394958 
	C464.223663,796.669067 468.369141,796.315796 472.447449,795.586304 
	C481.705353,793.930359 491.083832,792.719910 500.097382,789.115173 
	C499.421600,784.166321 498.795074,779.577881 497.973389,774.090454 
M685.805603,750.419983 
	C691.713623,732.952576 682.544617,703.431946 669.834290,695.875183 
	C669.450073,696.975525 668.985291,698.004822 668.730042,699.083618 
	C665.939270,710.878174 663.426147,722.759888 657.440979,733.507751 
	C656.949829,734.389771 656.549744,735.346436 657.040527,736.356812 
	C663.183899,749.005066 668.773865,761.863464 671.474304,777.315125 
	C678.113647,768.336670 682.634155,760.193542 685.805603,750.419983 
M343.070038,932.955383 
	C343.486206,929.901184 345.184845,926.135254 342.124390,924.130432 
	C336.497040,920.444214 330.266327,917.731873 323.559326,915.360535 
	C321.435150,921.278625 321.489105,926.981689 320.618744,932.478271 
	C318.699707,944.597717 317.236053,956.789307 315.583252,968.950989 
	C315.374634,970.485840 315.194336,971.892822 317.162109,972.590454 
	C323.878296,974.971436 330.561005,977.446960 338.208160,980.233215 
	C339.812653,964.395081 341.360504,949.115723 343.070038,932.955383 
M439.764435,844.665466 
	C447.119415,844.324280 454.633240,845.768677 462.335663,842.772217 
	C457.186401,830.412659 453.548035,817.898499 452.690460,804.715210 
	C452.537628,802.365417 450.774902,802.166199 449.044586,802.512756 
	C441.785065,803.966797 434.451202,803.370972 427.165894,803.181213 
	C422.874969,803.069397 421.909546,804.957825 422.370239,808.564880 
	C423.696411,818.949036 425.632874,829.163391 429.716583,838.907898 
	C431.506622,843.179382 434.147552,845.365906 439.764435,844.665466 
M336.704529,915.746643 
	C339.123688,916.574585 341.032013,918.943787 344.127167,918.257568 
	C346.008453,912.664795 345.993896,906.785645 347.191589,901.131165 
	C349.393555,890.735779 351.556244,880.329041 353.466797,869.877930 
	C353.786224,868.130798 355.535767,865.673645 352.464294,864.212830 
	C346.638672,861.442017 340.870331,858.550720 335.202515,855.770447 
	C333.677032,857.075928 333.556427,858.586670 333.196899,860.034180 
	C329.910095,873.267639 327.654846,886.705444 325.430115,900.138672 
	C323.880035,909.498169 324.108124,909.534485 332.898285,913.865234 
	C333.944061,914.380493 334.977753,914.920410 336.704529,915.746643 
M602.771423,678.137695 
	C600.386414,680.274597 602.286133,682.124023 603.310547,683.849731 
	C609.676514,694.573242 615.748657,705.443970 620.747314,716.889954 
	C621.236267,718.009521 621.440491,719.550415 623.900208,720.597229 
	C628.080566,716.801514 631.490784,712.235718 635.583801,708.398254 
	C639.898621,704.352905 640.402039,700.967896 637.278748,695.654480 
	C630.791321,684.617554 622.987061,674.677612 614.903076,664.540466 
	C610.743042,669.211182 606.991272,673.423523 602.771423,678.137695 
M666.325073,772.993958 
	C663.780945,761.446289 659.367188,750.623047 653.930298,739.840820 
	C648.601929,746.240051 643.629028,752.248657 638.606384,758.215393 
	C637.536987,759.485779 637.316284,760.682434 637.791992,762.326904 
	C641.413330,774.845093 646.966064,786.832886 647.748779,801.118774 
	C653.808044,796.684448 657.949890,791.694519 662.761475,787.468079 
	C667.229309,783.543518 669.378906,779.475403 666.325073,772.993958 
M486.612640,866.651672 
	C498.492249,865.917908 510.395813,865.353271 522.283203,861.922974 
	C519.542908,854.938232 516.965393,848.313904 514.341492,841.708008 
	C513.341675,839.190857 511.515106,840.102478 509.750122,840.683228 
	C504.380646,842.450073 499.032379,844.293335 493.612061,845.890198 
	C487.302460,847.749084 480.925476,849.379150 474.210114,851.208618 
	C476.247009,855.333618 478.402222,858.755554 479.637604,862.482422 
	C480.731659,865.782715 482.378448,867.185486 486.612640,866.651672 
M314.647583,455.853729 
	C316.161346,459.850769 317.487152,463.944763 320.442627,467.470337 
	C328.345001,444.554535 331.234619,421.129181 332.371521,396.974518 
	C315.293915,407.687073 307.731537,432.813232 314.647583,455.853729 
M368.800232,797.651123 
	C369.884827,794.170532 370.874176,790.656128 372.092529,787.223022 
	C372.740967,785.395874 372.418518,784.076416 371.061584,782.763245 
	C366.332397,778.186890 361.656616,773.555420 356.752869,768.741028 
	C351.701111,776.135559 347.542297,783.629517 344.879120,791.901001 
	C344.089539,794.353271 343.955414,796.653503 345.687561,798.947266 
	C351.334839,806.425720 358.561005,812.118835 366.581268,818.168213 
	C366.613495,811.081055 366.972198,804.689453 368.800232,797.651123 
M401.101349,873.298096 
	C406.987946,874.033081 412.874542,874.768127 418.658844,875.490356 
	C419.096924,874.600891 419.455109,874.180847 419.504303,873.727295 
	C420.178772,867.509644 418.510773,861.078247 421.412872,855.038818 
	C422.087921,853.633972 420.991547,852.536865 419.481445,852.134399 
	C410.393921,849.712280 401.306213,847.290894 391.858398,844.773254 
	C390.175018,853.530457 388.356842,861.713501 387.905914,870.188354 
	C392.059021,871.973267 396.235138,872.220520 401.101349,873.298096 
M341.646088,853.726318 
	C345.928925,856.123413 350.024597,858.949463 355.333466,859.922180 
	C357.170776,850.406311 358.988159,841.170715 360.704071,831.916321 
	C360.962433,830.523010 361.774109,828.836182 360.440002,827.645630 
	C355.073242,822.856506 349.617584,818.167114 344.271790,813.507996 
	C342.865143,814.783691 342.541443,815.855652 342.289459,817.023926 
	C340.336578,826.078186 338.660095,835.210266 336.229065,844.136047 
	C334.846130,849.213684 336.192505,851.943604 341.646088,853.726318 
M376.953217,837.692749 
	C373.676819,835.800964 370.400391,833.909241 366.980713,831.934753 
	C363.804810,840.891968 361.250305,849.575806 359.698212,858.546265 
	C359.357483,860.515686 359.189056,862.156128 361.505188,863.000916 
	C368.483246,865.546021 375.448395,868.122986 383.339600,869.387878 
	C384.172760,863.846741 385.007965,858.659790 385.723511,853.456482 
	C387.204071,842.690308 387.177856,842.686707 376.953217,837.692749 
M646.934326,716.473816 
	C645.489502,713.363403 644.044678,710.252930 642.698059,707.354004 
	C636.893860,712.868835 631.372742,718.125427 625.836365,723.366028 
	C624.739563,724.404175 624.576050,725.495300 625.033569,726.960693 
	C627.252258,734.068542 629.789612,741.041382 633.109558,748.148499 
	C638.385559,743.579407 641.752991,738.038696 645.644531,732.907837 
	C649.462219,727.874390 651.274048,722.870178 646.934326,716.473816 
M630.639648,578.418823 
	C630.433838,579.224487 630.219421,580.028015 630.023438,580.835999 
	C627.784668,590.066101 631.165833,598.790161 638.738464,603.330322 
	C645.985840,607.675476 654.945190,606.166870 662.115479,599.717834 
	C669.949646,592.671692 669.019714,583.178955 670.195557,573.686035 
	C667.346313,574.663635 664.658875,574.136841 662.818604,576.196350 
	C663.603516,582.937561 662.758423,589.035828 660.477844,593.254761 
	C657.629272,598.524353 651.283936,601.572327 645.767700,600.320679 
	C640.883728,599.212524 637.810791,594.475586 637.634460,588.013977 
	C637.560974,585.319946 638.030884,582.738586 638.593323,580.131409 
	C639.252563,577.075378 637.005310,576.161621 634.772278,575.214722 
	C632.136719,574.097168 631.641052,576.018311 630.639648,578.418823 
M437.630554,854.329224 
	C434.366486,854.087646 431.102417,853.846069 427.838318,853.604492 
	C443.413727,861.398071 460.018158,864.755798 477.816925,866.156921 
	C476.139709,860.600220 472.869873,857.113525 469.534210,853.693970 
	C468.418793,852.550415 466.952484,852.290833 465.372681,852.634399 
	C456.534149,854.556702 447.566467,854.490845 437.630554,854.329224 
M652.962891,575.189819 
	C653.190552,572.050720 653.400818,568.910217 653.651123,565.772949 
	C653.880249,562.900391 652.832825,560.558838 650.703613,558.700684 
	C649.369019,557.535950 648.081787,555.766052 645.994812,557.061646 
	C643.896179,558.364441 644.013184,560.289795 644.987183,562.311096 
	C646.527893,565.508606 646.555542,568.788208 646.569824,572.358398 
	C646.590942,577.635742 644.310120,582.369690 644.255798,587.506897 
	C644.235291,589.440063 644.648865,591.219727 646.492737,592.176880 
	C648.634644,593.288879 650.346252,592.089355 651.898499,590.779480 
	C655.406311,587.819397 655.861816,581.935913 652.962891,575.189819 
M652.188293,694.626526 
	C645.455200,702.985474 645.562195,707.917236 652.968933,718.558167 
	C656.886475,708.111084 660.076660,697.869568 658.945190,685.513916 
	C656.326660,689.044617 654.468750,691.549744 652.188293,694.626526 
M403.367676,744.342407 
	C399.687225,744.342407 396.006775,744.342407 391.726868,744.342407 
	C397.782959,748.138550 402.695007,752.807922 409.679718,753.313965 
	C412.306274,744.859314 410.981049,742.752014 403.367676,744.342407 
z"/>
<path fill="#999999" opacity="1.000000" stroke="none" 
	d="
M384.574707,573.252563 
	C404.769348,578.011841 424.913666,578.423401 445.028870,577.509766 
	C465.345215,576.587097 485.272797,572.787964 504.528015,566.049072 
	C514.610596,562.520386 523.681885,565.654968 532.145630,570.442200 
	C538.978210,574.306824 541.577881,590.743591 537.368713,597.448181 
	C536.327820,599.106140 535.020508,599.039856 533.523865,598.922485 
	C530.866089,598.714294 528.576416,597.853149 527.768799,595.001526 
	C526.880493,591.865112 526.129150,588.689819 525.069458,584.563354 
	C519.213867,598.542725 511.973999,610.687378 502.160004,620.928223 
	C484.463287,639.394653 463.390625,651.312683 437.268707,653.560608 
	C424.997559,654.616638 413.276093,653.429810 402.216339,648.336121 
	C381.911804,638.984558 369.218781,623.072266 363.783295,601.430664 
	C361.965881,594.194580 360.407349,586.882324 359.674469,579.438538 
	C359.512634,577.794983 359.167267,576.348816 357.516785,575.886475 
	C352.547394,574.494446 348.393829,570.998962 343.164825,570.347473 
	C341.477356,570.137207 340.115234,569.456238 340.005066,567.743103 
	C339.740295,563.625183 341.175385,560.051880 344.882751,558.055359 
	C348.496582,556.109253 352.319641,555.466980 355.681274,558.731567 
	C355.035583,561.100952 352.299316,561.384094 351.831055,564.132019 
	C362.170441,568.650635 373.188904,570.825684 384.574707,573.252563 
M517.114075,583.605652 
	C518.826538,582.155457 521.409668,581.681213 522.371216,578.687378 
	C516.100281,574.459900 509.741180,573.388733 502.298157,575.948608 
	C465.316193,588.667725 427.440338,590.248352 389.055389,584.290955 
	C383.761078,583.469238 382.475525,584.681702 383.776947,589.929749 
	C386.203857,599.716309 393.223938,605.061768 402.451752,606.441711 
	C418.230316,608.801147 434.153992,608.985413 450.070953,606.787659 
	C473.732452,603.520752 496.267853,597.138489 517.114075,583.605652 
M475.449036,629.929565 
	C482.078888,625.597656 488.583313,621.114685 494.275696,614.655823 
	C482.425507,613.589050 471.413239,615.140381 460.526855,617.371277 
	C447.193878,620.103516 433.670624,622.372864 421.596252,629.293762 
	C418.208496,631.235596 415.288910,633.662354 413.413116,637.140686 
	C411.922791,639.904236 412.598541,642.286011 415.669159,643.001648 
	C422.936646,644.695374 430.335815,646.651184 437.810333,644.984985 
	C450.894348,642.068359 463.127350,636.821472 475.449036,629.929565 
z"/>
<path fill="#999999" opacity="1.000000" stroke="none" 
	d="
M408.284302,687.214600 
	C394.219452,683.740662 382.371857,677.528992 374.193909,665.592285 
	C371.809906,662.112549 370.140045,658.332031 369.723907,654.105042 
	C369.559357,652.433655 369.643250,650.563232 371.660278,649.982910 
	C373.658112,649.408264 374.609253,650.918640 375.517792,652.402283 
	C389.040527,674.484375 408.727081,682.543701 435.585449,677.240662 
	C444.724121,675.436340 453.880737,673.867126 462.278992,669.517761 
	C464.150177,668.548584 466.616852,667.294739 467.935730,669.957092 
	C469.087067,672.281250 467.177704,674.014160 465.385468,675.338562 
	C455.625824,682.550598 444.563538,686.118103 432.572784,687.401062 
	C424.585480,688.255676 416.659454,688.486145 408.284302,687.214600 
z"/>
<path fill="#999999" opacity="1.000000" stroke="none" 
	d="
M478.815613,350.072815 
	C477.479431,345.510071 479.334473,342.303741 481.981171,339.304535 
	C488.424530,332.002960 496.926514,328.877716 506.222778,327.828400 
	C533.537537,324.745331 558.835815,340.369232 570.259277,362.526611 
	C571.570129,365.069336 572.363342,367.739227 572.345642,370.652039 
	C572.327454,373.643524 571.820312,376.499298 568.865479,377.833557 
	C565.721802,379.253082 562.946472,377.784973 560.746033,375.563629 
	C558.291626,373.085999 556.281555,370.158997 553.769958,367.748718 
	C535.869507,350.570923 514.709839,347.084930 491.350159,353.146637 
	C486.739594,354.342987 482.126221,355.720276 478.815613,350.072815 
z"/>
<path fill="#999999" opacity="1.000000" stroke="none" 
	d="
M411.558746,345.468140 
	C404.383392,339.422852 396.261383,339.225555 388.081665,340.763184 
	C379.825867,342.315155 372.218292,345.614075 365.665588,351.141052 
	C363.501495,352.966339 360.986237,355.780609 357.843292,353.041687 
	C354.937073,350.509064 355.888489,347.185547 357.463715,344.320343 
	C368.652069,323.970459 388.306183,315.245483 410.072479,321.102661 
	C419.264252,323.576080 425.142181,331.281830 426.946716,341.067139 
	C427.581207,344.507812 426.358856,347.874817 423.069305,349.603821 
	C419.776642,351.334534 416.617432,350.483185 414.018036,347.761353 
	C413.329010,347.039886 412.566895,346.388153 411.558746,345.468140 
z"/>
<path fill="#999999" opacity="1.000000" stroke="none" 
	d="
M546.910889,478.706848 
	C537.541870,494.364441 523.066895,500.186218 506.221741,499.777649 
	C488.272278,499.342255 476.748840,488.194122 469.738678,472.847931 
	C456.794861,444.512299 475.160736,414.823059 504.550049,410.072357 
	C526.639526,406.501617 546.581848,418.508667 552.259460,443.137970 
	C555.123840,455.563538 552.631897,467.192322 546.910889,478.706848 
M501.054718,490.572479 
	C504.522797,490.847931 507.887238,491.979523 511.443634,491.592804 
	C534.790710,489.053925 549.076111,469.907806 544.782471,446.849518 
	C541.663635,430.100891 529.404541,418.781647 511.709351,417.576782 
	C497.525696,416.610992 481.298676,427.320160 476.222809,439.961914 
	C468.020050,460.391541 478.699158,483.070831 501.054718,490.572479 
z"/>
<path fill="#999999" opacity="1.000000" stroke="none" 
			d="
M385.886719,425.305725 
	C389.365967,431.150238 388.850067,436.542236 385.025177,441.459320 
	C381.988312,445.363342 377.707336,446.363403 372.901184,445.414398 
	C367.816650,444.410431 364.648621,440.275787 364.664642,434.535400 
	C364.680817,428.745789 367.588623,424.726593 372.578217,422.227631 
	C377.564117,419.730591 381.921143,421.118652 385.886719,425.305725 
z"/>
		<!-- Crazy Eye 2 (originally left eye) - Moved down and right -->
		<path fill="#999999" opacity="1.000000" stroke="none" 
			d="
M540.199646,474.868713 
	C532.260498,485.419769 518.895538,485.181488 513.945007,474.742798 
	C511.056763,468.652679 512.905945,461.133148 518.353638,456.814514 
	C524.351868,452.059631 532.559387,451.619751 537.715210,455.776825 
	C542.651184,459.756653 543.728882,467.315491 540.199646,474.868713 
z"/>
</svg>